<svg width="125" height="104" viewBox="0 0 125 104" fill="none" xmlns="http://www.w3.org/2000/svg">
<path d="M124.861 38.2821L121.554 32.5252C121.406 32.2714 121.163 32.0866 120.878 32.011C120.593 31.9355 120.289 31.9753 120.034 32.1219L112.961 36.238L102.039 6.17409C101.462 4.38019 100.328 2.81539 98.8013 1.70563C97.2743 0.595876 95.433 -0.00141378 93.5433 2.51291e-06H33.0988C28.2582 2.51291e-06 23.9616 3.11486 22.469 7.71761L12.0625 36.2519L4.97596 32.1358C4.72047 31.9892 4.41716 31.9494 4.13228 32.0249C3.84739 32.1005 3.60406 32.2853 3.45543 32.5391L0.149331 38.2821C-0.157565 38.8105 0.0237828 39.478 0.553875 39.7839L8.97956 44.6787L6.95683 50.2409C6.78944 50.6859 6.70574 51.1587 6.70574 51.6315V100.051C6.70574 102.234 8.35182 104 10.3745 104H19.8046C21.5204 104 23.0131 102.707 23.3758 100.899L24.4499 95.6566H100.56L101.634 100.899C102.011 102.707 103.489 104 105.205 104H114.635C116.658 104 118.304 102.234 118.304 100.051V51.6315C118.304 51.1587 118.22 50.6859 118.053 50.2409L116.03 44.6787L124.442 39.7839C124.695 39.6382 124.881 39.3992 124.959 39.1183C125.038 38.8374 125.002 38.5372 124.861 38.2821ZM27.9094 67.1502C24.8265 67.1502 22.3295 64.661 22.3295 61.5879C22.3295 58.5148 24.8265 56.0257 27.9094 56.0257C30.9923 56.0257 33.4894 58.5148 33.4894 61.5879C33.4894 64.661 30.9923 67.1502 27.9094 67.1502ZM82.0347 77.5794C82.0347 78.1912 81.5325 78.6918 80.9187 78.6918H44.0912C43.4774 78.6918 42.9752 78.1912 42.9752 77.5794V65.8987C42.9752 65.2868 43.4774 64.7862 44.0912 64.7862H49.6711C50.2849 64.7862 50.7871 65.2868 50.7871 65.8987V70.9047H74.2228V65.8987C74.2228 65.2868 74.725 64.7862 75.3388 64.7862H80.9187C81.5325 64.7862 82.0347 65.2868 82.0347 65.8987V77.5794ZM97.1005 67.1502C94.0176 67.1502 91.5205 64.661 91.5205 61.5879C91.5205 58.5148 94.0176 56.0257 97.1005 56.0257C100.183 56.0257 102.68 58.5148 102.68 61.5879C102.68 64.661 100.183 67.1502 97.1005 67.1502ZM21.7715 38.9218L31.913 11.1245L31.9828 10.9437L32.0386 10.7629C32.192 10.3041 32.6105 9.99813 33.0988 9.99813H92.7481L103.266 38.9218H21.7715Z" fill="url(#paint0_linear_114_780)"/>
<defs>
<linearGradient id="paint0_linear_114_780" x1="62.5" y1="0" x2="62.5" y2="104" gradientUnits="userSpaceOnUse">
<stop stop-color="#367BBF"/>
<stop offset="1" stop-color="#6AB9C1"/>
</linearGradient>
</defs>
</svg>
