<svg width="34" height="28" viewBox="0 0 34 28" fill="none" xmlns="http://www.w3.org/2000/svg">
<path d="M33.9621 10.3067L33.0628 8.75679C33.0224 8.68846 32.9562 8.63869 32.8787 8.61835C32.8012 8.59801 32.7187 8.60874 32.6492 8.64822L30.7255 9.75639L27.7545 1.66225C27.5977 1.17928 27.2893 0.757989 26.874 0.459209C26.4586 0.160428 25.9578 -0.000380632 25.4438 6.76552e-07H9.00286C7.68623 6.76552e-07 6.51757 0.838616 6.11157 2.07782L3.28099 9.76013L1.35346 8.65196C1.28397 8.61249 1.20147 8.60175 1.12398 8.62209C1.04649 8.64243 0.980305 8.6922 0.939878 8.76053L0.040618 10.3067C-0.0428576 10.449 0.00646893 10.6287 0.150654 10.7111L2.44244 12.0289L1.89226 13.5264C1.84673 13.6462 1.82396 13.7735 1.82396 13.9008V26.9368C1.82396 27.5245 2.27169 28 2.82187 28H5.38685C5.85356 28 6.25955 27.6518 6.3582 27.1651L6.65037 25.7537H27.3523L27.6445 27.1651C27.7469 27.6518 28.1491 28 28.6158 28H31.1808C31.731 28 32.1787 27.5245 32.1787 26.9368V13.9008C32.1787 13.7735 32.156 13.6462 32.1104 13.5264L31.5603 12.0289L33.8482 10.7111C33.9171 10.6718 33.9676 10.6075 33.9889 10.5319C34.0102 10.4562 34.0006 10.3754 33.9621 10.3067ZM7.59137 18.0789C6.75282 18.0789 6.07363 17.4087 6.07363 16.5814C6.07363 15.754 6.75282 15.0838 7.59137 15.0838C8.42992 15.0838 9.10911 15.754 9.10911 16.5814C9.10911 17.4087 8.42992 18.0789 7.59137 18.0789ZM22.3134 20.8867C22.3134 21.0515 22.1768 21.1863 22.0099 21.1863H11.9928C11.8259 21.1863 11.6893 21.0515 11.6893 20.8867V17.7419C11.6893 17.5772 11.8259 17.4424 11.9928 17.4424H13.5105C13.6775 17.4424 13.8141 17.5772 13.8141 17.7419V19.0897H20.1886V17.7419C20.1886 17.5772 20.3252 17.4424 20.4921 17.4424H22.0099C22.1768 17.4424 22.3134 17.5772 22.3134 17.7419V20.8867ZM26.4113 18.0789C25.5728 18.0789 24.8936 17.4087 24.8936 16.5814C24.8936 15.754 25.5728 15.0838 26.4113 15.0838C27.2499 15.0838 27.9291 15.754 27.9291 16.5814C27.9291 17.4087 27.2499 18.0789 26.4113 18.0789ZM5.92185 10.4789L8.68034 2.99505L8.69932 2.94638L8.71449 2.89771C8.75623 2.77417 8.87006 2.6918 9.00286 2.6918H25.2275L28.0884 10.4789H5.92185Z" fill="url(#paint0_linear_120_1057)"/>
<defs>
<linearGradient id="paint0_linear_120_1057" x1="17" y1="0" x2="17" y2="28" gradientUnits="userSpaceOnUse">
<stop stop-color="#367BBF"/>
<stop offset="1" stop-color="#6AB9C1"/>
</linearGradient>
</defs>
</svg>
