<svg width="23" height="23" viewBox="0 0 23 23" fill="none" xmlns="http://www.w3.org/2000/svg">
<path d="M11.5 0C5.14933 0 0 5.14933 0 11.5C0 17.8507 5.14933 23 11.5 23C17.8507 23 23 17.8507 23 11.5C23 5.14933 17.8507 0 11.5 0ZM15.7458 15.869L14.0516 15.8613L11.5 12.8194L8.951 15.8587L7.25424 15.8664C7.14129 15.8664 7.04888 15.7766 7.04888 15.661C7.04888 15.6123 7.06685 15.5661 7.09766 15.5276L10.4373 11.5488L7.09766 7.57255C7.06664 7.53492 7.04943 7.48782 7.04888 7.43906C7.04888 7.32612 7.14129 7.23371 7.25424 7.23371L8.951 7.24141L11.5 10.2833L14.049 7.24397L15.7432 7.23627C15.8561 7.23627 15.9485 7.32612 15.9485 7.44163C15.9485 7.4904 15.9306 7.53661 15.8998 7.57511L12.5653 11.5513L15.9023 15.5301C15.9331 15.5686 15.9511 15.6148 15.9511 15.6636C15.9511 15.7766 15.8587 15.869 15.7458 15.869Z" fill="#204F90"/>
</svg>
