<svg width="23" height="23" viewBox="0 0 23 23" fill="none" xmlns="http://www.w3.org/2000/svg">
<path d="M11.5 22C17.299 22 22 17.299 22 11.5C22 5.70101 17.299 1 11.5 1C5.70101 1 1 5.70101 1 11.5C1 17.299 5.70101 22 11.5 22Z" stroke="#EC4646" stroke-width="1.5" stroke-miterlimit="10"/>
<path d="M13.5544 14.3533C12.7326 17.0011 10.8152 19.238 9.44568 18.8272C8.07611 18.4163 7.61959 16.5902 8.39568 13.8967" stroke="#EC4646" stroke-width="1.5" stroke-miterlimit="10"/>
<path d="M16.4304 13.1892C16.2361 13.3606 16.0805 13.5713 15.9739 13.8075C15.8673 14.0436 15.8122 14.2997 15.8122 14.5588C15.8122 14.8179 15.8673 15.074 15.9739 15.3101C16.0805 15.5462 16.2361 15.757 16.4304 15.9283M5.93042 14.5588C6.98042 14.1936 9.03477 14.1023 10.7239 14.1023C12.413 14.1023 14.513 14.1936 15.5174 14.5588" stroke="#EC4646" stroke-width="1.5" stroke-linecap="round" stroke-linejoin="round"/>
<path d="M17.3891 9.85661C17.2212 9.476 16.9462 9.15241 16.5977 8.92525C16.2491 8.69809 15.8421 8.57715 15.4261 8.57715C15.01 8.57715 14.603 8.69809 14.2545 8.92525C13.9059 9.15241 13.631 9.476 13.463 9.85661M9.53693 9.85661C9.36898 9.476 9.09401 9.15241 8.74548 8.92525C8.39695 8.69809 7.9899 8.57715 7.57388 8.57715C7.15786 8.57715 6.75081 8.69809 6.40229 8.92525C6.05376 9.15241 5.77879 9.476 5.61084 9.85661" stroke="#EC4646" stroke-width="1.5" stroke-miterlimit="10" stroke-linecap="round"/>
</svg>
