<svg width="20" height="20" viewBox="0 0 20 20" fill="none" xmlns="http://www.w3.org/2000/svg">
<path d="M9.99996 1.66666C5.39996 1.66666 1.66663 5.39999 1.66663 9.99999C1.66663 14.6 5.39996 18.3333 9.99996 18.3333H14.1666V16.6667H9.99996C6.38329 16.6667 3.33329 13.6167 3.33329 9.99999C3.33329 6.38332 6.38329 3.33332 9.99996 3.33332C13.6166 3.33332 16.6666 6.38332 16.6666 9.99999V11.1917C16.6666 11.85 16.075 12.5 15.4166 12.5C14.7583 12.5 14.1666 11.85 14.1666 11.1917V9.99999C14.1666 7.69999 12.3 5.83332 9.99996 5.83332C7.69996 5.83332 5.83329 7.69999 5.83329 9.99999C5.83329 12.3 7.69996 14.1667 9.99996 14.1667C11.15 14.1667 12.2 13.7 12.95 12.9417C13.4916 13.6833 14.425 14.1667 15.4166 14.1667C17.0583 14.1667 18.3333 12.8333 18.3333 11.1917V9.99999C18.3333 5.39999 14.6 1.66666 9.99996 1.66666ZM9.99996 12.5C8.61663 12.5 7.49996 11.3833 7.49996 9.99999C7.49996 8.61666 8.61663 7.49999 9.99996 7.49999C11.3833 7.49999 12.5 8.61666 12.5 9.99999C12.5 11.3833 11.3833 12.5 9.99996 12.5Z" fill="#807676"/>
</svg>
