<svg width="54" height="54" viewBox="0 0 54 54" fill="none" xmlns="http://www.w3.org/2000/svg">
<path d="M22.449 20.4203C22.838 20.469 23.1916 20.6702 23.4323 20.9796C23.6729 21.289 23.7808 21.6813 23.7323 22.0702L22.3958 32.7711C22.3472 33.1603 22.146 33.5142 21.8364 33.755C21.5268 33.9958 21.1343 34.1038 20.7451 34.0552C20.356 34.0065 20.0021 33.8053 19.7613 33.4958C19.5205 33.1862 19.4125 32.7937 19.4611 32.4045L20.7991 21.7036C20.8478 21.3147 21.049 20.961 21.3584 20.7204C21.6678 20.4797 22.0601 20.3718 22.449 20.4203Z" fill="#F80205"/>
<path fill-rule="evenodd" clip-rule="evenodd" d="M4.91187 0.414062C3.73555 0.414062 2.60741 0.881352 1.77563 1.71313C0.943852 2.54491 0.476562 3.67305 0.476562 4.84937V49.2024C0.476562 50.3787 0.943852 51.5068 1.77563 52.3386C2.60741 53.1704 3.73555 53.6377 4.91187 53.6377H49.2649C50.4412 53.6377 51.5693 53.1704 52.4011 52.3386C53.2329 51.5068 53.7002 50.3787 53.7002 49.2024V4.84937C53.7002 3.67305 53.2329 2.54491 52.4011 1.71313C51.5693 0.881352 50.4412 0.414062 49.2649 0.414062H4.91187ZM17.4105 20.6124C17.6988 18.1641 19.4685 16.1062 21.8976 15.6863C25.6676 15.0358 28.6836 15.0402 32.3073 15.6745C34.7245 16.0973 36.4764 18.1508 36.7647 20.5873L38.9159 38.8534H15.2609L17.4105 20.6124ZM13.7825 44.7671V41.8102H40.3943V44.7671H13.7825ZM10.8921 28.5043C10.8037 27.5207 10.8037 26.5311 10.8921 25.5474H6.3903V28.5043H10.8921ZM12.3203 20.2059C12.7348 19.3101 13.2302 18.454 13.8002 17.6482L9.90306 15.3965L8.42463 17.9572L12.3203 20.2059ZM17.7092 13.7377C18.512 13.1715 19.368 12.6732 20.2698 12.2578L18.0197 8.36213L15.459 9.84056L17.7092 13.7377ZM25.6099 10.8296C26.5936 10.7412 27.5832 10.7412 28.5668 10.8296V6.3278H25.6099V10.8296ZM33.9084 12.2578C34.804 12.6727 35.6601 13.168 36.4661 13.7377L38.7177 9.84056L36.1571 8.36213L33.9084 12.2578ZM40.3765 17.6467C40.9428 18.4495 41.441 19.3055 41.8565 20.2073L45.7521 17.9572L44.2737 15.3965L40.3765 17.6467ZM43.2846 25.5474C43.373 26.5311 43.373 27.5207 43.2846 28.5043H47.7865V25.5474H43.2846Z" fill="#F80205"/>
</svg>
