<svg width="51" height="51" viewBox="0 0 51 51" fill="none" xmlns="http://www.w3.org/2000/svg">
<path d="M22.9564 28.0436H28.0436V12.7818H22.9564V28.0436ZM25.5 35.6746C26.2207 35.6746 26.8252 35.4304 27.3136 34.942C27.8003 34.4553 28.0436 33.8516 28.0436 33.1309C28.0436 32.4102 27.8003 31.8057 27.3136 31.3173C26.8252 30.8306 26.2207 30.5873 25.5 30.5873C24.7793 30.5873 24.1756 30.8306 23.6889 31.3173C23.2006 31.8057 22.9564 32.4102 22.9564 33.1309C22.9564 33.8516 23.2006 34.4553 23.6889 34.942C24.1756 35.4304 24.7793 35.6746 25.5 35.6746ZM29.1247 49.5374C28.1496 50.5125 26.9414 51 25.5 51C24.0586 51 22.8504 50.5125 21.8753 49.5374L1.46259 29.1247C0.487531 28.1496 0 26.9414 0 25.5C0 24.0586 0.487531 22.8504 1.46259 21.8753L21.8753 1.46259C22.8504 0.487531 24.0586 0 25.5 0C26.9414 0 28.1496 0.487531 29.1247 1.46259L49.5374 21.8753C50.5125 22.8504 51 24.0586 51 25.5C51 26.9414 50.5125 28.1496 49.5374 29.1247L29.1247 49.5374Z" fill="#C525A2"/>
</svg>
