<svg width="63" height="24" viewBox="0 0 63 24" fill="none" xmlns="http://www.w3.org/2000/svg">
<g filter="url(#filter0_d_259_3)">
<rect x="4" width="55" height="16" rx="4" fill="#D82185"/>
</g>
<path d="M20.7198 5.72727H21.6005V10.5426C21.6005 11.0398 21.4833 11.4837 21.2489 11.8743C21.0169 12.2625 20.689 12.5691 20.2653 12.794C19.8415 13.0166 19.3443 13.1278 18.7738 13.1278C18.2032 13.1278 17.7061 13.0166 17.2823 12.794C16.8585 12.5691 16.5295 12.2625 16.2951 11.8743C16.0631 11.4837 15.9471 11.0398 15.9471 10.5426V5.72727H16.8278V10.4716C16.8278 10.8267 16.9059 11.1428 17.0621 11.4197C17.2184 11.6944 17.4409 11.911 17.7298 12.0696C18.021 12.2259 18.369 12.304 18.7738 12.304C19.1786 12.304 19.5266 12.2259 19.8178 12.0696C20.109 11.911 20.3316 11.6944 20.4854 11.4197C20.6417 11.1428 20.7198 10.8267 20.7198 10.4716V5.72727ZM24.0836 9.71875V13H23.2456V7.54545H24.0552V8.39773H24.1262C24.2541 8.12074 24.4482 7.8982 24.7086 7.73011C24.969 7.55966 25.3052 7.47443 25.7172 7.47443C26.0865 7.47443 26.4096 7.55019 26.6866 7.7017C26.9636 7.85085 27.179 8.07812 27.3329 8.38352C27.4868 8.68655 27.5637 9.07008 27.5637 9.53409V13H26.7257V9.59091C26.7257 9.16241 26.6144 8.8286 26.3919 8.58949C26.1693 8.34801 25.8639 8.22727 25.4757 8.22727C25.2082 8.22727 24.969 8.28527 24.7583 8.40128C24.55 8.51728 24.3855 8.68655 24.2647 8.90909C24.144 9.13163 24.0836 9.40152 24.0836 9.71875ZM29.0952 13V7.54545H29.9332V13H29.0952ZM29.5213 6.63636C29.358 6.63636 29.2171 6.58073 29.0987 6.46946C28.9827 6.35819 28.9247 6.22443 28.9247 6.06818C28.9247 5.91193 28.9827 5.77817 29.0987 5.6669C29.2171 5.55563 29.358 5.5 29.5213 5.5C29.6847 5.5 29.8243 5.55563 29.9403 5.6669C30.0587 5.77817 30.1179 5.91193 30.1179 6.06818C30.1179 6.22443 30.0587 6.35819 29.9403 6.46946C29.8243 6.58073 29.6847 6.63636 29.5213 6.63636ZM31.4682 13V7.54545H32.2779V8.36932H32.3347C32.4341 8.09943 32.6141 7.88045 32.8745 7.71236C33.1349 7.54427 33.4284 7.46023 33.7551 7.46023C33.8167 7.46023 33.8936 7.46141 33.986 7.46378C34.0783 7.46615 34.1481 7.4697 34.1955 7.47443V8.3267C34.1671 8.3196 34.102 8.30895 34.0002 8.29474C33.9007 8.27817 33.7954 8.26989 33.6841 8.26989C33.419 8.26989 33.1822 8.32552 32.9739 8.43679C32.7679 8.54569 32.6046 8.69721 32.4838 8.89134C32.3655 9.0831 32.3063 9.30208 32.3063 9.5483V13H31.4682ZM35.1889 13V7.54545H35.9986V8.39773H36.0696C36.1832 8.10653 36.3667 7.88045 36.62 7.71946C36.8733 7.55611 37.1776 7.47443 37.5327 7.47443C37.8925 7.47443 38.192 7.55611 38.4311 7.71946C38.6726 7.88045 38.8608 8.10653 38.9957 8.39773H39.0526C39.1922 8.116 39.4018 7.89228 39.6811 7.72656C39.9605 7.55848 40.2955 7.47443 40.6861 7.47443C41.1738 7.47443 41.5727 7.62713 41.8828 7.93253C42.1929 8.23556 42.348 8.70786 42.348 9.34943V13H41.5099V9.34943C41.5099 8.94697 41.3999 8.65933 41.1797 8.48651C40.9595 8.31368 40.7003 8.22727 40.402 8.22727C40.0185 8.22727 39.7214 8.34328 39.5107 8.57528C39.3 8.80492 39.1946 9.09612 39.1946 9.44886V13H38.3423V9.2642C38.3423 8.95407 38.2417 8.70431 38.0405 8.51491C37.8393 8.32315 37.58 8.22727 37.2628 8.22727C37.045 8.22727 36.8414 8.28527 36.652 8.40128C36.465 8.51728 36.3134 8.67827 36.1974 8.88423C36.0838 9.08783 36.027 9.32339 36.027 9.59091V13H35.1889ZM46.1673 13.1136C45.6417 13.1136 45.1883 12.9976 44.8072 12.7656C44.4284 12.5312 44.136 12.2045 43.93 11.7855C43.7264 11.3641 43.6246 10.8741 43.6246 10.3153C43.6246 9.75663 43.7264 9.2642 43.93 8.83807C44.136 8.40956 44.4225 8.07576 44.7894 7.83665C45.1587 7.59517 45.5896 7.47443 46.082 7.47443C46.3661 7.47443 46.6467 7.52178 46.9237 7.61648C47.2006 7.71117 47.4528 7.86506 47.68 8.07812C47.9073 8.28883 48.0884 8.56818 48.2234 8.91619C48.3583 9.2642 48.4258 9.69271 48.4258 10.2017V10.5568H44.2212V9.83239H47.5735C47.5735 9.52462 47.512 9.25 47.3888 9.00852C47.2681 8.76705 47.0953 8.57647 46.8704 8.43679C46.6478 8.29711 46.3851 8.22727 46.082 8.22727C45.7482 8.22727 45.4594 8.31013 45.2156 8.47585C44.9741 8.6392 44.7882 8.85227 44.658 9.11506C44.5278 9.37784 44.4627 9.65956 44.4627 9.96023V10.4432C44.4627 10.8551 44.5337 11.2043 44.6758 11.4908C44.8202 11.7749 45.0202 11.9915 45.2759 12.1406C45.5316 12.2874 45.8287 12.3608 46.1673 12.3608C46.3874 12.3608 46.5863 12.33 46.7638 12.2685C46.9438 12.2045 47.0988 12.1098 47.229 11.9844C47.3593 11.8565 47.4599 11.6979 47.5309 11.5085L48.3406 11.7358C48.2553 12.0104 48.1121 12.2519 47.9109 12.4602C47.7096 12.6662 47.4611 12.8272 47.1651 12.9432C46.8692 13.0568 46.5366 13.1136 46.1673 13.1136Z" fill="white"/>
<defs>
<filter id="filter0_d_259_3" x="0" y="0" width="63" height="24" filterUnits="userSpaceOnUse" color-interpolation-filters="sRGB">
<feFlood flood-opacity="0" result="BackgroundImageFix"/>
<feColorMatrix in="SourceAlpha" type="matrix" values="0 0 0 0 0 0 0 0 0 0 0 0 0 0 0 0 0 0 127 0" result="hardAlpha"/>
<feOffset dy="4"/>
<feGaussianBlur stdDeviation="2"/>
<feComposite in2="hardAlpha" operator="out"/>
<feColorMatrix type="matrix" values="0 0 0 0 0 0 0 0 0 0 0 0 0 0 0 0 0 0 0.25 0"/>
<feBlend mode="normal" in2="BackgroundImageFix" result="effect1_dropShadow_259_3"/>
<feBlend mode="normal" in="SourceGraphic" in2="effect1_dropShadow_259_3" result="shape"/>
</filter>
</defs>
</svg>
