<svg width="17" height="17" viewBox="0 0 17 17" fill="none" xmlns="http://www.w3.org/2000/svg">
<path d="M11.3487 0.000670464C10.1908 0.000670464 9.11159 0.456592 8.22212 1.32016C7.2119 2.30173 6.74957 3.50858 6.88482 4.79857C6.98625 5.75601 7.43616 6.72149 8.15726 7.58506L3.15443 12.446L2.2484 11.5657C1.80677 11.1345 1.44035 11.4919 0.998034 11.9223L0.566755 12.3622C0.123746 12.7906 -0.241978 13.1265 0.200341 13.5563L1.10499 14.4373L0.394244 15.1279C0.288987 15.2295 0.205451 15.3503 0.148446 15.4833C0.0914411 15.6164 0.0620936 15.7591 0.0620936 15.9033C0.0620936 16.0474 0.0914411 16.1901 0.148446 16.3232C0.205451 16.4563 0.288987 16.5771 0.394244 16.6787C0.835873 17.1071 1.54731 17.1071 1.99032 16.6787L9.83959 9.05205C10.6897 9.56966 11.613 9.8479 12.5128 9.8479C13.67 9.8479 14.7513 9.39198 15.6401 8.52774C16.651 7.54684 17.1127 6.33999 16.9767 5.05C16.8553 3.88941 16.2211 2.72145 15.2088 1.73921C14.062 0.623539 12.6922 0 11.3487 0V0.000670464ZM11.3922 1.38319C12.3534 1.38319 13.3519 1.86123 14.2166 2.70335C14.9853 3.44757 15.4648 4.31382 15.5539 5.15459C15.6456 6.02889 15.3289 6.86162 14.6264 7.54349C13.9971 8.15362 13.2636 8.46472 12.47 8.46472C11.5081 8.46472 10.5117 7.986 9.645 7.14523C8.87698 6.39899 8.3974 5.53475 8.30838 4.69398C8.21729 3.81968 8.53264 2.98763 9.2358 2.30508C9.86512 1.69495 10.5986 1.38319 11.3915 1.38319H11.3922Z" fill="#807676"/>
</svg>
