<svg width="22" height="22" viewBox="0 0 22 22" fill="none" xmlns="http://www.w3.org/2000/svg">
<path fill-rule="evenodd" clip-rule="evenodd" d="M11 20.7778C16.4004 20.7778 20.7778 16.4004 20.7778 11C20.7778 5.59961 16.4004 1.22222 11 1.22222C5.59961 1.22222 1.22222 5.59961 1.22222 11C1.22222 16.4004 5.59961 20.7778 11 20.7778ZM11 22C17.0751 22 22 17.0751 22 11C22 4.92494 17.0751 0 11 0C4.92494 0 0 4.92494 0 11C0 17.0751 4.92494 22 11 22Z" fill="#52B130"/>
<path fill-rule="evenodd" clip-rule="evenodd" d="M9.34135 9.31876C9.40674 9.56198 9.43057 9.82903 9.35113 10.0478C9.33569 10.0902 9.31106 10.1286 9.27901 10.1604C9.24696 10.1921 9.20828 10.2163 9.16575 10.2313C9.12322 10.2464 9.0779 10.2518 9.03303 10.2472C8.98816 10.2426 8.94486 10.2282 8.90624 10.2049C8.74285 10.1019 8.58647 9.98816 8.43813 9.86448L8.31896 9.7667C8.20896 9.67748 8.10263 9.5907 7.99263 9.5082C7.68585 9.27903 7.44263 9.15804 7.2318 9.16842C7.01057 9.17942 6.74291 9.33404 6.39946 9.60537C6.3023 9.68176 6.19841 9.76853 6.09085 9.85898C5.85374 10.057 5.59707 10.2715 5.35324 10.4279C5.31008 10.4557 5.2606 10.4722 5.20939 10.4758C5.15818 10.4794 5.10688 10.4701 5.06023 10.4487C5.01358 10.4272 4.97308 10.3944 4.94248 10.3532C4.91187 10.3119 4.89215 10.2637 4.88513 10.2128C4.85457 9.98976 4.90102 9.71109 4.98841 9.43853C5.08814 9.13137 5.23115 8.84 5.41313 8.5732C5.79202 8.01892 6.4068 7.49642 7.22996 7.53065C8.02441 7.56426 8.61352 8.02992 8.96796 8.53715C9.14641 8.79137 9.2723 9.06454 9.34074 9.31876H9.34135ZM12.6071 9.31876C12.5411 9.56198 12.5173 9.82903 12.5967 10.0478C12.6122 10.0903 12.6368 10.1288 12.6689 10.1606C12.701 10.1924 12.7397 10.2167 12.7824 10.2317C12.825 10.2467 12.8704 10.2521 12.9153 10.2475C12.9602 10.2428 13.0036 10.2283 13.0422 10.2049C13.2024 10.1083 13.3606 9.98487 13.5097 9.86448L13.6295 9.7667C13.7395 9.67748 13.8459 9.5907 13.9559 9.5082C14.262 9.27903 14.5059 9.15804 14.7161 9.16842C14.9379 9.17942 15.205 9.33404 15.549 9.60537C15.6456 9.68176 15.7495 9.76853 15.8576 9.85898C16.0941 10.057 16.3508 10.2715 16.5952 10.4279C16.6384 10.4556 16.6878 10.4719 16.7389 10.4755C16.7901 10.479 16.8413 10.4697 16.8878 10.4482C16.9344 10.4268 16.9748 10.394 17.0054 10.3529C17.0359 10.3117 17.0557 10.2636 17.0627 10.2128C17.0933 9.98976 17.0469 9.71109 16.9601 9.43853C16.8603 9.13137 16.7173 8.84 16.5354 8.5732C16.1565 8.01892 15.5411 7.49642 14.7179 7.53065C13.9235 7.56426 13.335 8.02992 12.9799 8.53715C12.812 8.77452 12.6859 9.03887 12.6071 9.31876ZM10.9999 18.9444C8.53224 18.9444 6.39335 17.0817 5.34224 14.361C5.33195 14.3348 5.32177 14.3085 5.31169 14.2822C5.03913 13.5544 5.62213 12.8333 6.40007 12.8333H15.6004C16.3783 12.8333 16.9619 13.5544 16.6881 14.2822C16.6782 14.3085 16.6683 14.3348 16.6582 14.361C15.6065 17.0817 13.4676 18.9444 10.9999 18.9444ZM15.4464 14.0995C15.263 14.5444 15.0497 14.9526 14.8139 15.3217H7.18596C6.97299 14.9874 6.78644 14.637 6.62802 14.2736V14.0995H15.4464Z" fill="#52B130"/>
<path fill-rule="evenodd" clip-rule="evenodd" d="M15.444 16.5439C15.5827 16.3636 15.7153 16.1754 15.8412 15.9799C16.1829 15.4457 16.4666 14.8766 16.6876 14.2822C16.9216 13.6607 16.5299 13.0435 15.9255 12.8766C15.8194 12.8476 15.7098 12.833 15.5998 12.8333H6.40015C6.29009 12.8332 6.18053 12.848 6.07443 12.8773C5.79909 12.9515 5.56095 13.125 5.40587 13.3643C5.31893 13.4991 5.26513 13.6525 5.24888 13.812C5.23263 13.9716 5.25439 14.1327 5.31237 14.2822C5.37414 14.4447 5.43975 14.6056 5.50915 14.765C5.69859 15.1958 5.91615 15.6022 6.15876 15.9799C6.28465 16.1754 6.41726 16.3636 6.55598 16.5433C7.70121 18.0289 9.26932 18.9444 11 18.9444C12.73 18.9444 14.2988 18.0289 15.444 16.5439ZM15.4464 14.0995C15.272 14.5247 15.0603 14.9337 14.8139 15.3217H7.18604C6.97306 14.9874 6.78651 14.637 6.6281 14.2736V14.0995H15.4464Z" fill="#52B130"/>
</svg>
