<svg width="15" height="17" viewBox="0 0 15 17" fill="none" xmlns="http://www.w3.org/2000/svg">
<path d="M4.1971 0.607143C4.1971 0.446119 4.26027 0.291689 4.37271 0.177828C4.48516 0.0639666 4.63766 0 4.79668 0H9.59337C9.75239 0 9.90489 0.0639666 10.0173 0.177828C10.1298 0.291689 10.193 0.446119 10.193 0.607143C10.193 0.768167 10.1298 0.922596 10.0173 1.03646C9.90489 1.15032 9.75239 1.21429 9.59337 1.21429H4.79668C4.63766 1.21429 4.48516 1.15032 4.37271 1.03646C4.26027 0.922596 4.1971 0.768167 4.1971 0.607143ZM7.19502 4.85714C7.036 4.85714 6.8835 4.92111 6.77105 5.03497C6.65861 5.14883 6.59544 5.30326 6.59544 5.46429V10.3214C6.59544 10.4825 6.65861 10.6369 6.77105 10.7507C6.8835 10.8646 7.036 10.9286 7.19502 10.9286C7.35404 10.9286 7.50655 10.8646 7.619 10.7507C7.73144 10.6369 7.79461 10.4825 7.79461 10.3214V5.46429C7.79461 5.30326 7.73144 5.14883 7.619 5.03497C7.50655 4.92111 7.35404 4.85714 7.19502 4.85714ZM14.39 9.71429C14.39 11.6466 13.632 13.4997 12.2827 14.8661C10.9333 16.2324 9.10326 17 7.19502 17C5.28679 17 3.4567 16.2324 2.10737 14.8661C0.758045 13.4997 0 11.6466 0 9.71429C0 7.78199 0.758045 5.92884 2.10737 4.56251C3.4567 3.19617 5.28679 2.42857 7.19502 2.42857C9.10326 2.42857 10.9333 3.19617 12.2827 4.56251C13.632 5.92884 14.39 7.78199 14.39 9.71429V9.71429ZM13.1909 9.71429C13.1909 8.10404 12.5592 6.55975 11.4347 5.42114C10.3103 4.28252 8.78522 3.64286 7.19502 3.64286C5.60482 3.64286 4.07976 4.28252 2.95532 5.42114C1.83087 6.55975 1.19917 8.10404 1.19917 9.71429C1.19917 11.3245 1.83087 12.8688 2.95532 14.0074C4.07976 15.146 5.60482 15.7857 7.19502 15.7857C8.78522 15.7857 10.3103 15.146 11.4347 14.0074C12.5592 12.8688 13.1909 11.3245 13.1909 9.71429ZM13.1345 1.99386C13.0792 1.93587 13.013 1.88962 12.9399 1.8578C12.8667 1.82598 12.7881 1.80923 12.7085 1.80853C12.6288 1.80783 12.5499 1.82319 12.4762 1.85372C12.4025 1.88424 12.3356 1.92933 12.2793 1.98633C12.223 2.04334 12.1785 2.11113 12.1483 2.18574C12.1182 2.26036 12.103 2.34031 12.1037 2.42092C12.1044 2.50154 12.1209 2.58121 12.1523 2.65528C12.1838 2.72936 12.2294 2.79635 12.2867 2.85236L13.9691 4.556C14.0244 4.61399 14.0906 4.66024 14.1638 4.69206C14.2369 4.72388 14.3156 4.74063 14.3952 4.74133C14.4748 4.74203 14.5538 4.72667 14.6275 4.69614C14.7011 4.66561 14.7681 4.62053 14.8244 4.56353C14.8807 4.50652 14.9252 4.43873 14.9554 4.36411C14.9855 4.2895 15.0007 4.20955 15 4.12894C14.9993 4.04832 14.9827 3.96865 14.9513 3.89458C14.9199 3.8205 14.8742 3.75351 14.817 3.6975L13.1345 1.99386V1.99386Z" fill="black"/>
</svg>
